<?xml version="1.0" encoding="utf-8"?>
<!-- Generator: Adobe Illustrator 23.1.0, SVG Export Plug-In . SVG Version: 6.00 Build 0)  -->
<svg version="1.1" id="Layer_1" xmlns="http://www.w3.org/2000/svg" xmlns:xlink="http://www.w3.org/1999/xlink" x="0px" y="0px"
	 viewBox="0 0 512 512" style="enable-background:new 0 0 512 512;" xml:space="preserve">
<style type="text/css">
	.st0{fill:#FF9210;}
	.st1{fill:#FFDA00;}
	.st2{fill:#FF6F0D;}
	.st3{fill:#FFD110;}
	.st4{fill:#E57D00;}
</style>
<g>
	<g>
		<path class="st0" d="M0,399.7c0-3.1,1.6-6.2,4.5-7.8L67.4,356c1.6-1,3.6-1.3,5.4-1.1l76,8.4l41.8-50.2c3.2-3.8,8.8-4.3,12.6-1.1
			c3.8,3.2,4.3,8.8,1.1,12.7l-44.9,53.9c-1.9,2.3-4.9,3.5-7.9,3.2L73.8,373l-60.3,34.5c-4.3,2.5-9.8,1-12.3-3.3
			C0.4,402.8,0,401.2,0,399.7"/>
		<path class="st0" d="M305.4,318.9c0-3.6,2.2-7.1,5.8-8.4c4.7-1.7,9.8,0.6,11.6,5.3l25.1,67l48.8,8.1c4.3,0.7,7.5,4.5,7.5,8.9v35.9
			c0,5-4,9-9,9s-9-4-9-9v-28.3l-46.4-7.7c-3.2-0.5-5.8-2.7-6.9-5.7L306,322C305.6,321,305.4,319.9,305.4,318.9"/>
		<path class="st0" d="M188.6,426.7c0-2,0.7-4.1,2.1-5.7l42.8-51.4V319c0-5,4-9,9-9s9,4,9,9v53.9c0,2.1-0.7,4.1-2.1,5.8l-44.9,53.9
			c-3.2,3.8-8.8,4.3-12.6,1.2C189.7,431.8,188.6,429.2,188.6,426.7"/>
		<path class="st0" d="M0,112.3c0-1.5,0.4-3,1.2-4.4c2.5-4.3,7.9-5.8,12.3-3.3L73.8,139l77.9-8.7c3-0.3,6,0.9,7.9,3.2l44.9,53.9
			c3.2,3.8,2.7,9.5-1.1,12.7s-9.5,2.6-12.6-1.1L149,148.8l-76,8.4c-1.9,0.2-3.8-0.2-5.4-1.1l-63.1-36C1.6,118.4,0,115.4,0,112.3"/>
		<path class="st0" d="M305.4,193.1c0-1.1,0.2-2.1,0.6-3.2l26.9-71.9c1.1-3,3.8-5.2,6.9-5.7l46.4-7.7V76.3c0-5,4-9,9-9s9,4,9,9v35.9
			c0,4.4-3.2,8.1-7.5,8.9l-48.8,8.1l-25.1,67c-1.7,4.6-6.9,7-11.6,5.3C307.6,200.2,305.4,196.8,305.4,193.1"/>
		<path class="st0" d="M188.6,85.3c0-2.6,1.1-5.1,3.2-6.9c3.8-3.2,9.5-2.6,12.6,1.1l44.9,53.9c1.3,1.6,2.1,3.7,2.1,5.8v53.9
			c0,5-4,9-9,9s-9-4-9-9v-50.6l-42.8-51.4C189.3,89.4,188.6,87.4,188.6,85.3"/>
	</g>
	<g>
		<path class="st1" d="M413.1,274c0-0.4,0-0.7,0.1-1.1c0.6-4.9,5.1-8.4,10-7.8c3.7,0.4,88.8,11.3,88.8,60.6c0,0.9,0,1.9-0.1,2.8
			c-0.3,4.9-4.6,8.7-9.5,8.4c-4.9-0.3-8.7-4.3-8.4-9.5c0-0.5,0-1,0-1.5c0-33.1-72.3-42.8-73-42.9C416.5,282.3,413.1,278.5,413.1,274
			"/>
		<path class="st1" d="M413.1,238c0-4.5,3.4-8.4,7.9-8.9c0.7-0.1,73-9.8,73-42.9c0-0.5,0-1,0-1.5c-0.3-5.1,3.4-9.2,8.4-9.5
			c4.9-0.3,9.2,3.4,9.5,8.4c0.1,1,0.1,1.9,0.1,2.8c0,49.3-85.1,60.1-88.8,60.6c-4.9,0.6-9.4-2.9-10-7.8
			C413.1,238.7,413.1,238.4,413.1,238"/>
	</g>
	<path class="st2" d="M0,256h359.3v44.9c-20.8,20.8-44.9,18-44.9,18H179.6C73,318.9,0,265,0,265V256z"/>
	<path class="st3" d="M0,256h359.3v-44.9c-20.8-20.8-44.9-18-44.9-18H179.6C73,193.1,0,247,0,247V256z"/>
	<path class="st4" d="M396.5,215.7c19.8,2.5,34.6,19.3,34.6,39.2v2.1c0,19.9-14.8,36.7-34.6,39.2l-37.3,4.7v-89.8L396.5,215.7z"/>
</g>
</svg>
