<svg id="Layer_1" data-name="Layer 1" xmlns="http://www.w3.org/2000/svg" viewBox="0 0 512 377.26"><defs><style>.cls-1{fill:#00a523;}.cls-2{fill:#00c62f;}.cls-3{fill:#218e3d;}.cls-4{fill:#00a323;}</style></defs><title>cockroach</title><path class="cls-1" d="M0,399.73a9,9,0,0,1,4.53-7.81L67.41,356a8.83,8.83,0,0,1,5.44-1.13l76,8.44,41.83-50.18a9,9,0,1,1,13.79,11.51l-44.91,53.9a9,9,0,0,1-7.89,3.17L73.77,373,13.44,407.51a9,9,0,0,1-12.25-3.34A8.84,8.84,0,0,1,0,399.73" transform="translate(0 -67.37)"/><path class="cls-1" d="M305.4,318.88a9,9,0,0,1,17.4-3.17l25.12,67,48.78,8.14a9,9,0,0,1,7.5,8.86v35.93a9,9,0,0,1-18,0V407.33l-46.38-7.74a9,9,0,0,1-6.94-5.69L306,322a9.26,9.26,0,0,1-.57-3.16" transform="translate(0 -67.37)"/><path class="cls-1" d="M188.63,426.66a8.92,8.92,0,0,1,2.09-5.75l42.82-51.39V318.87a9,9,0,0,1,18,0v53.9a9,9,0,0,1-2.09,5.76l-44.91,53.89a9,9,0,0,1-15.88-5.76" transform="translate(0 -67.37)"/><path class="cls-1" d="M0,112.27a9,9,0,0,1,13.44-7.79L73.77,139l77.94-8.66a9,9,0,0,1,7.89,3.17l44.91,53.89a9,9,0,1,1-13.8,11.52l-41.82-50.19-76,8.45A8.94,8.94,0,0,1,67.4,156L4.53,120.08A9,9,0,0,1,0,112.27" transform="translate(0 -67.37)"/><path class="cls-1" d="M305.4,193.12A9,9,0,0,1,306,190l26.94-71.86a9,9,0,0,1,6.94-5.69l46.38-7.74V76.35a9,9,0,0,1,18,0v35.93a9,9,0,0,1-7.5,8.86l-48.79,8.13-25.12,67a9,9,0,0,1-17.4-3.16" transform="translate(0 -67.37)"/><path class="cls-1" d="M188.63,85.34a9,9,0,0,1,15.88-5.77l44.91,53.9a9,9,0,0,1,2.09,5.76v53.89a9,9,0,0,1-18,0V142.48L190.72,91.09a8.92,8.92,0,0,1-2.09-5.75" transform="translate(0 -67.37)"/><path class="cls-2" d="M413.12,274a7.83,7.83,0,0,1,.07-1.08,9,9,0,0,1,10-7.85c3.69.45,88.82,11.31,88.82,60.58,0,.93,0,1.86-.09,2.81a9,9,0,0,1-9.54,8.39,8.85,8.85,0,0,1-8.39-9.54c0-.49,0-1,0-1.47,0-33.07-72.26-42.84-73-42.93a9,9,0,0,1-7.89-8.91" transform="translate(0 -67.37)"/><path class="cls-2" d="M413.12,238a9,9,0,0,1,7.9-8.91c.74-.09,73-9.75,73-42.91,0-.49,0-1,0-1.49a9,9,0,0,1,17.93-1.15c.06,1,.09,1.89.09,2.82,0,49.26-85.13,60.12-88.82,60.57a9,9,0,0,1-10-7.84,10.09,10.09,0,0,1-.06-1.09" transform="translate(0 -67.37)"/><path class="cls-3" d="M0,256H359.3v44.91c-20.77,20.77-44.91,18-44.91,18H179.65C73,318.88,0,265,0,265Z" transform="translate(0 -67.37)"/><path class="cls-2" d="M0,256H359.3V211.09c-20.77-20.77-44.91-18-44.91-18H179.65C73,193.12,0,247,0,247Z" transform="translate(0 -67.37)"/><path class="cls-4" d="M396.55,215.75A39.51,39.51,0,0,1,431.16,255v2.1a39.51,39.51,0,0,1-34.61,39.2l-37.25,4.66V211.09Z" transform="translate(0 -67.37)"/></svg>