<?xml version="1.0" encoding="utf-8"?>
<!-- Generator: Adobe Illustrator 23.1.0, SVG Export Plug-In . SVG Version: 6.00 Build 0)  -->
<svg version="1.1" id="Layer_1_copy" xmlns="http://www.w3.org/2000/svg" xmlns:xlink="http://www.w3.org/1999/xlink" x="0px"
	 y="0px" viewBox="0 0 512 512" style="enable-background:new 0 0 512 512;" xml:space="preserve">
<style type="text/css">
	.st0{fill:#DB4288;}
	.st1{fill:#E8005F;}
	.st2{fill:#ED2E72;}
	.st3{fill:#DB073F;}
	.st4{fill:#FF9CEC;}
</style>
<g>
	<path class="st0" d="M220,60c-4.4,0-8-3.6-8-8V12c0-4.4,3.6-8,8-8s8,3.6,8,8v40C228,56.5,224.4,60,220,60z"/>
	<path class="st0" d="M300,60c-4.4,0-8-3.6-8-8V12c0-4.4,3.6-8,8-8s8,3.6,8,8v40C308,56.5,304.4,60,300,60z"/>
	<path class="st0" d="M163.4,129.6c-2.7,3.5-7.7,4.3-11.2,1.6l-33-24.8c-2-1.5-3.2-3.9-3.2-6.4V12c0-4.4,3.6-8,8-8c4.4,0,8,3.6,8,8
		v84l29.8,22.4c2,1.5,3.2,3.9,3.2,6.4C165,126.6,164.4,128.3,163.4,129.6z"/>
	<path class="st0" d="M162.8,164.6c-0.3,4.4-4.2,7.7-8.6,7.4L51.3,164c-3.8-0.3-6.9-3.3-7.3-7.2l-8-72c-0.4-4.4,2.7-8.3,7.1-8.8
		c4.4-0.5,8.3,2.7,8.8,7.1l7.2,65.4l96.3,7.4c4.2,0.3,7.4,3.8,7.4,8L162.8,164.6z"/>
	<path class="st0" d="M84,219.5c0,3.6-2.4,6.8-5.9,7.7l-28,7.5l-30.6,84.1c-1.5,4-6,6.1-10.1,4.7c-4.2-1.4-6.4-6-5-10.2l32-88
		c0.9-2.5,2.9-4.3,5.5-5l32-8.5c4.3-1.1,8.7,1.4,9.8,5.7C83.9,218.1,84,218.8,84,219.5L84,219.5z"/>
	<path class="st0" d="M172,196c0,3.6-2.4,6.8-5.9,7.7l-56,14.9c-4.2,1-8.4-1.4-9.6-5.6c-1.2-4.2,1.3-8.7,5.5-9.9l56-14.9
		c4.3-1.1,8.7,1.4,9.8,5.7C171.9,194.6,172,195.3,172,196L172,196z"/>
	<path class="st0" d="M199.2,230.7c0,2.9-1.5,5.5-4,7L90.9,297.3L67.7,397.8c-1,4.3-5.3,7-9.6,6s-7-5.3-6-9.6l24-104
		c0.5-2.2,1.9-4,3.8-5.2l107.3-61.3c1.2-0.7,2.6-1.1,4-1.1C195.7,222.7,199.2,226.3,199.2,230.7L199.2,230.7z"/>
	<path class="st0" d="M408.1,114.9l-40,24l0,0c-3.8,2.3-8.7,1-11-2.7c-2.3-3.8-1-8.7,2.7-11l36.1-21.6l-1-91.4V12c0-4.4,3.5-8,8-8
		c4.4,0,8,3.5,8,8l1,96v0.1C412,110.9,410.5,113.5,408.1,114.9z"/>
	<path class="st0" d="M475.8,93.8l-16,72c-0.8,3.4-3.6,5.9-7.1,6.2l-88,8c-4.4,0.4-8.3-2.9-8.7-7.3s2.9-8.3,7.3-8.7l82.2-7.4
		l14.7-66.3c0.8-3.7,4.1-6.3,7.8-6.3c4.4,0,8,3.6,8,8C476,92.6,475.9,93.2,475.8,93.8z"/>
	<path class="st0" d="M500,300c0,3.1-1.7,5.9-4.5,7.3c-4,1.9-8.8,0.3-10.7-3.7l-30.4-60.8l-105.8-30.2c-4.3-1.2-6.7-5.6-5.5-9.9
		s5.6-6.7,9.9-5.5l109.2,31.2c2.2,0.6,4,2.1,5,4.1l32,64C499.7,297.6,500,298.8,500,300L500,300z"/>
	<path class="st0" d="M460,396c-0.1,3.8-2.8,7-6.5,7.7c-4.3,0.9-8.5-2-9.4-6.3l-15.4-88.3l-113-64.6c-0.1-0.1-0.2-0.1-0.3-0.2
		c-3.8-2.3-5-7.2-2.7-11c2.3-3.8,7.2-5,11-2.7l116.3,66.4c2.1,1.2,3.5,3.2,3.9,5.6l16,92C459.9,395.1,460,395.6,460,396L460,396z"/>
</g>
<path class="st1" d="M130,352c0-53,26.2-94.9,73-112.6l57.4,0.5l49.4,3.8C347.3,264.9,378,305.7,378,352
	c0,59.4-41.8,133.1-97.6,151.6c-8.5,2.9-17.4,4.4-26.4,4.4C185.5,508,130,420.5,130,352z"/>
<path class="st2" d="M130,352c0-53,26.2-94.9,73-112.6l57.4,0.5c-32.5,86.6-25.2,183.1,20,263.8c-8.5,2.9-17.4,4.4-26.4,4.4
	C185.5,508,130,420.5,130,352z"/>
<path class="st1" d="M235.9,253.2c-44.2-10.3-76.9-47.6-81.4-92.7c-5.8-58.2,36.7-110.1,94.9-115.9c3.5-0.4,7-0.6,10.6-0.6
	c58.5,0,106,47.5,106,106s-47.5,106-106,106C251.8,256.1,243.8,255.1,235.9,253.2z"/>
<path class="st3" d="M154.5,160.5c-5.8-58.2,36.7-110.1,94.9-115.9c-37,63.6-42,140.8-13.5,208.6C191.7,243,159,205.7,154.5,160.5z"
	/>
<path d="M228,116c-4.4,0-8-3.6-8-8V92c0-4.4,3.6-8,8-8s8,3.6,8,8v16C236,112.5,232.4,116,228,116z"/>
<path d="M276,116c-4.4,0-8-3.6-8-8V92c0-4.4,3.6-8,8-8s8,3.6,8,8v16C284,112.5,280.4,116,276,116z"/>
<path class="st4" d="M180,352c-4.4,0-8-3.6-8-8v-8c0-4.4,3.6-8,8-8s8,3.6,8,8v8C188,348.5,184.4,352,180,352z"/>
<path class="st4" d="M180,384c-4.4,0-8-3.6-8-8v-8c0-4.4,3.6-8,8-8s8,3.6,8,8v8C188,380.5,184.4,384,180,384z"/>
</svg>
